<?xml version="1.0" standalone="no"?>
<!DOCTYPE svg PUBLIC "-//W3C//DTD SVG 20010904//EN"
 "http://www.w3.org/TR/2001/REC-SVG-20010904/DTD/svg10.dtd">
<svg version="1.0" xmlns="http://www.w3.org/2000/svg"
 width="64.000000pt" height="64.000000pt" viewBox="0 0 64.000000 64.000000"
 preserveAspectRatio="xMidYMid meet">

<g transform="translate(0.000000,64.000000) scale(0.100000,-0.100000)"
fill="#000000" stroke="none">
<path d="M223 622 c-109 -39 -178 -112 -210 -221 -29 -102 4 -228 82 -306 122
-121 328 -121 450 0 91 92 118 241 64 356 -69 146 -241 223 -386 171z m187
-83 c60 -27 98 -64 126 -124 56 -118 4 -252 -121 -311 -65 -31 -125 -31 -190
0 -191 90 -191 342 0 432 62 29 125 30 185 3z"/>
<path d="M232 514 c-84 -43 -126 -116 -120 -208 4 -71 34 -123 95 -164 33 -23
48 -27 113 -27 65 0 80 4 113 27 22 14 51 43 65 65 23 33 27 48 27 113 0 65
-4 80 -27 113 -43 63 -92 91 -168 95 -46 2 -75 -2 -98 -14z m151 -21 c2 -5 0
-23 -5 -41 -18 -66 -98 -66 -116 0 -5 18 -7 36 -5 41 2 4 31 7 63 7 32 0 61
-3 63 -7z m-153 -68 c25 -41 20 -72 -17 -86 -31 -12 -73 -1 -73 19 0 20 48
102 60 102 4 0 18 -16 30 -35z m245 -8 c31 -55 32 -73 1 -81 -33 -8 -73 8 -81
34 -7 21 28 90 45 90 5 0 21 -20 35 -43z m-117 -59 c7 -7 12 -24 12 -38 0 -14
-5 -31 -12 -38 -15 -15 -61 -15 -76 0 -15 15 -15 61 0 76 7 7 24 12 38 12 14
0 31 -5 38 -12z m120 -54 c12 -4 22 -13 22 -22 0 -20 -48 -102 -60 -102 -4 0
-18 16 -30 35 -25 40 -20 72 13 85 28 11 27 11 55 4z m-238 -25 c13 -23 -1
-69 -27 -91 -12 -10 -18 -8 -34 12 -26 33 -41 70 -35 87 3 8 21 13 45 13 31 0
43 -5 51 -21z m117 -61 c12 -13 23 -34 25 -47 2 -21 -2 -26 -30 -32 -17 -3
-47 -3 -65 0 -27 6 -31 11 -29 32 5 30 40 69 62 69 9 0 26 -10 37 -22z"/>
</g>
</svg>
